<?xml version="1.0" ?><!DOCTYPE svg  PUBLIC '-//W3C//DTD SVG 1.1//EN'  'http://www.w3.org/Graphics/SVG/1.1/DTD/svg11.dtd'><svg height="512px" style="enable-background:new 0 0 512 512;" version="1.1" viewBox="0 0 512 512" width="512px" xml:space="preserve" xmlns="http://www.w3.org/2000/svg" xmlns:xlink="http://www.w3.org/1999/xlink"><g id="comp_x5F_143-github-alt"><g><g><g><path d="M485.999,277.271c0,30.571-3.067,62.962-16.77,91.042      c-36.321,73.405-136.18,71.681-207.672,71.681c-72.641,0-178.44,2.589-216.198-71.681      c-13.992-27.794-19.359-60.471-19.359-91.042c0-40.155,13.321-78.105,39.771-108.867c-4.982-15.143-7.379-31.05-7.379-46.767      c0-20.604,4.697-30.954,13.991-49.641c43.413,0,71.205,8.624,104.267,34.5c27.792-6.614,56.351-9.584,85.002-9.584      c25.876,0,51.942,2.779,77.052,8.818c32.582-25.588,60.373-33.733,103.306-33.733c9.394,18.687,13.992,29.037,13.992,49.641      c0,15.716-2.491,31.338-7.379,46.191C474.979,198.878,485.999,237.116,485.999,277.271L485.999,277.271z" style="fill:#FFFFFF;"/><path d="M246.96,450.004c-38.614,0-79.441-0.78-116.814-10.105c-45.94-11.464-76.59-33.397-93.7-67.054      c-16.901-33.572-20.445-70.5-20.445-95.574c0-41.475,13.332-79.765,38.616-111.099c-4.132-14.289-6.225-29.243-6.225-44.535      c0-22.752,5.434-34.785,15.038-54.094c1.69-3.398,5.158-5.546,8.954-5.546c44.652,0,74.052,9.196,106.616,33.697      c26.133-5.829,53.912-8.781,82.654-8.781c25.874,0,50.98,2.692,74.704,8.007c31.772-23.933,60.93-32.922,105.653-32.922      c3.78,0,7.237,2.131,8.935,5.509c9.616,19.13,15.058,31.077,15.058,54.132c0,14.969-2.097,29.748-6.236,44.009      c24.048,30.348,36.232,67.87,36.232,111.625c0,25.321-1.844,62.764-17.782,95.428c-38.248,77.299-139.723,77.299-206.87,77.299      l-9.789-0.004L246.96,450.004z M78.571,82.061c-7.03,14.464-10.178,23.2-10.178,39.576c0,15.087,2.314,29.771,6.878,43.641      c1.095,3.329,0.368,6.988-1.917,9.645c-24.437,28.421-37.353,63.812-37.353,102.348c0,22.906,3.173,56.516,18.291,86.545      c31.049,61.076,112.206,66.189,192.668,66.188l14.597-0.011l9.789,0.004c62.203,0,156.204,0,188.92-66.119      c14.099-28.894,15.732-63.269,15.732-86.607c0-40.967-11.775-75.611-34.999-102.972c-2.253-2.654-2.963-6.29-1.875-9.597      c4.563-13.868,6.878-28.357,6.878-43.065c0-16.6-3.14-25.292-10.152-39.578c-38.389,0.799-62.745,9.37-90.969,31.536      c-2.405,1.888-5.543,2.573-8.515,1.858c-23.565-5.667-48.702-8.541-74.714-8.541c-28.9,0-56.721,3.133-82.688,9.313      c-2.959,0.704-6.081,0.022-8.478-1.854C141.479,91.667,116.865,82.885,78.571,82.061z"/></g><g><path d="M424.378,302.919c0-42.069-25.586-79.157-70.437-79.157c-18.112,0-35.458,3.258-53.665,5.75      c-14.28,2.204-28.562,3.066-43.223,3.066c-14.567,0-28.844-0.862-43.219-3.066c-17.921-2.492-35.458-5.75-53.667-5.75      c-44.849,0-70.438,37.087-70.438,79.157c0,84.143,77.049,97.081,144.133,97.081h46.191      C347.425,400,424.378,387.157,424.378,302.919z" style="fill:#FFFFFF;"/><path d="M280.054,410h-46.191c-44.634,0-76.942-5.73-101.676-18.033c-34.808-17.314-52.457-47.274-52.457-89.048      c0-23.651,7.348-45.571,20.691-61.723c14.826-17.947,35.486-27.434,59.747-27.434c15.36,0,30.216,2.2,44.583,4.327      c3.478,0.515,6.961,1.031,10.46,1.518c0.046,0.006,0.092,0.013,0.139,0.021c12.951,1.985,26.592,2.951,41.704,2.951      c15.199,0,28.839-0.965,41.697-2.949c0.057-0.009,0.113-0.017,0.17-0.025c3.778-0.517,7.521-1.068,11.239-1.615      c14.125-2.078,28.73-4.227,43.781-4.227c24.262,0,44.922,9.486,59.747,27.434c13.342,16.152,20.689,38.072,20.689,61.723      c0,41.824-17.646,71.797-52.449,89.086C357.215,404.282,324.844,410,280.054,410z M160.167,233.762      c-41.524,0-60.438,35.849-60.438,69.157c0,34.025,13.53,57.296,41.364,71.141c21.564,10.727,51.909,15.94,92.769,15.94h46.191      c92.897,0,134.324-26.856,134.324-87.081c0-33.308-18.912-69.157-60.437-69.157c-13.588,0-26.84,1.95-40.87,4.014      c-3.757,0.553-7.537,1.109-11.354,1.632c-13.854,2.133-28.465,3.17-44.664,3.17c-16.109,0-30.719-1.037-44.662-3.171      c-3.536-0.492-7.056-1.013-10.57-1.533C187.542,235.759,174.055,233.762,160.167,233.762z"/></g><g><path d="M194.346,302.92c0,14.335-7.475,37.792-25.171,37.792c-17.694,0-25.169-23.457-25.169-37.792      s7.475-37.79,25.169-37.79C186.871,265.13,194.346,288.585,194.346,302.92z" style="fill:#FFFFFF;"/><path d="M169.175,350.712c-24.258,0-35.169-27.947-35.169-47.792c0-19.844,10.911-47.79,35.169-47.79      c24.259,0,35.171,27.946,35.171,47.79C204.346,322.765,193.434,350.712,169.175,350.712z M169.175,275.13      c-10.1,0-15.169,17.816-15.169,27.79c0,9.975,5.069,27.792,15.169,27.792c10.102,0,15.171-17.817,15.171-27.792      C184.346,292.946,179.276,275.13,169.175,275.13z"/></g><g><path d="M344.829,265.13c-17.695,0-25.17,23.455-25.17,37.79s7.475,37.792,25.17,37.792      S370,317.255,370,302.92S362.524,265.13,344.829,265.13z" style="fill:#FFFFFF;"/><path d="M344.829,350.712c-24.259,0-35.17-27.947-35.17-47.792c0-19.844,10.911-47.79,35.17-47.79S380,283.076,380,302.92      C380,322.765,369.088,350.712,344.829,350.712z M344.829,275.13c-10.101,0-15.17,17.816-15.17,27.79      c0,9.975,5.069,27.792,15.17,27.792c10.102,0,15.171-17.817,15.171-27.792C360,292.946,354.931,275.13,344.829,275.13z"/></g></g></g></g><g id="Layer_1"/></svg>